<svg width="45" height="50" viewBox="0 0 45 50" fill="none" xmlns="http://www.w3.org/2000/svg">
<path d="M4.05106 38.1078L2.21552 37.048L22.6637 1.63177L24.4992 2.69153L4.05106 38.1078Z" fill="#E10098"/>
<path d="M1.79523 34.2186H42.6916V36.3381H1.79523V34.2186Z" fill="#E10098"/>
<path d="M23.0603 47.2198L2.60443 35.4093L3.66419 33.5738L24.12 45.3843L23.0603 47.2198ZM40.8302 16.4385L20.3743 4.62803L21.4341 2.79248L41.8899 14.603L40.8302 16.4385Z" fill="#E10098"/>
<path d="M3.6698 16.4304L2.61005 14.595L23.0659 2.78448L24.1256 4.62003L3.6698 16.4304Z" fill="#E10098"/>
<path d="M40.453 38.1081L20.0048 2.6919L21.8404 1.63214L42.2886 37.0484L40.453 38.1081ZM3.41675 13.1895H5.53626V36.8105H3.41675V13.1895ZM38.9632 13.1895H41.0827V36.8105H38.9632V13.1895Z" fill="#E10098"/>
<path d="M22.6994 46.3228L21.7737 44.7193L39.5649 34.4474L40.4905 36.0507L22.6994 46.3228Z" fill="#E10098"/>
<path d="M43.8917 37.5C42.666 39.6323 39.9336 40.3601 37.8013 39.1343C35.6691 37.9086 34.9413 35.1762 36.167 33.0439C37.3928 30.9116 40.1251 30.1839 42.2574 31.4096C44.4025 32.6481 45.1302 35.3677 43.8917 37.5ZM8.31972 16.9561C7.09398 19.0884 4.3616 19.8161 2.22932 18.5904C0.0970464 17.3647 -0.630737 14.6323 0.595003 12.5C1.82074 10.3677 4.55312 9.63994 6.6854 10.8657C8.81768 12.1042 9.54546 14.8238 8.31972 16.9561ZM0.607772 37.5C-0.617969 35.3677 0.109814 32.6481 2.24209 31.4096C4.37437 30.1839 7.09398 30.9116 8.33249 33.0439C9.55823 35.1762 8.83045 37.8958 6.69817 39.1343C4.55312 40.3601 1.83351 39.6323 0.607772 37.5ZM36.1798 16.9561C34.954 14.8238 35.6818 12.1042 37.8141 10.8657C39.9464 9.63994 42.666 10.3677 43.9045 12.5C45.1302 14.6323 44.4025 17.3519 42.2702 18.5904C40.1379 19.8161 37.4055 19.0884 36.1798 16.9561ZM22.2498 50C19.7855 50 17.7937 48.0082 17.7937 45.5439C17.7937 43.0797 19.7855 41.0878 22.2498 41.0878C24.714 41.0878 26.7058 43.0797 26.7058 45.5439C26.7058 47.9954 24.714 50 22.2498 50ZM22.2498 8.91216C19.7855 8.91216 17.7937 6.92033 17.7937 4.45608C17.7937 1.99183 19.7855 0 22.2498 0C24.714 0 26.7058 1.99183 26.7058 4.45608C26.7058 6.92033 24.714 8.91216 22.2498 8.91216Z" fill="#E10098"/>
</svg>
