<svg width="470" height="639" viewBox="0 0 470 639" fill="none" xmlns="http://www.w3.org/2000/svg">
<rect width="470" height="639" rx="12" fill="white"/>
<path d="M200.502 279.833C199.473 272.401 193.756 268.088 186.34 268.088C177.6 268.088 171.017 274.459 171.017 285.273C171.017 296.07 177.519 302.457 186.34 302.457C194.295 302.457 199.571 297.312 200.502 290.925L194.393 290.892C193.625 294.812 190.423 297.018 186.421 297.018C180.998 297.018 177.11 292.95 177.11 285.273C177.11 277.726 180.965 273.528 186.438 273.528C190.505 273.528 193.69 275.831 194.393 279.833H200.502ZM236.406 285.273C236.406 274.459 229.806 268.088 221.034 268.088C212.246 268.088 205.663 274.459 205.663 285.273C205.663 296.07 212.246 302.457 221.034 302.457C229.806 302.457 236.406 296.087 236.406 285.273ZM230.313 285.273C230.313 292.885 226.49 297.018 221.034 297.018C215.594 297.018 211.756 292.885 211.756 285.273C211.756 277.661 215.594 273.528 221.034 273.528C226.49 273.528 230.313 277.661 230.313 285.273ZM272.489 285.273C272.489 274.459 265.889 268.088 257.117 268.088C248.329 268.088 241.746 274.459 241.746 285.273C241.746 296.07 248.329 302.457 257.117 302.457C265.889 302.457 272.489 296.087 272.489 285.273ZM266.396 285.273C266.396 292.885 262.573 297.018 257.117 297.018C251.678 297.018 247.839 292.885 247.839 285.273C247.839 277.661 251.678 273.528 257.117 273.528C262.573 273.528 266.396 277.661 266.396 285.273ZM278.678 302H299.473V296.92H284.739V268.545H278.678V302ZM76.54 337.545H70.4797V371H76.54V337.545ZM83.5627 371H104.357V365.92H89.6231V337.545H83.5627V371ZM110.077 371H130.872V365.92H116.138V337.545H110.077V371ZM157.681 337.545V358.896C157.681 363.094 154.757 366.099 150.167 366.099C145.56 366.099 142.652 363.094 142.652 358.896V337.545H136.592V359.402C136.592 366.589 141.983 371.506 150.167 371.506C158.318 371.506 163.741 366.589 163.741 359.402V337.545H157.681ZM188.97 346.742H194.801C194.687 341.09 189.868 337.088 182.746 337.088C175.722 337.088 170.445 341.041 170.462 346.955C170.462 351.757 173.876 354.518 179.381 355.939L183.187 356.919C186.797 357.834 189.182 358.961 189.198 361.558C189.182 364.417 186.47 366.328 182.517 366.328C178.727 366.328 175.787 364.629 175.542 361.117H169.58C169.825 367.766 174.774 371.506 182.566 371.506C190.587 371.506 195.242 367.504 195.259 361.607C195.242 355.808 190.456 353.162 185.425 351.969L182.288 351.185C179.544 350.532 176.571 349.372 176.604 346.579C176.62 344.063 178.874 342.217 182.664 342.217C186.274 342.217 188.659 343.9 188.97 346.742ZM199.651 342.626H209.992V371H216.003V342.626H226.343V337.545H199.651V342.626ZM231.949 371H238.009V358.749H244.184L250.751 371H257.513L250.277 357.736C254.214 356.151 256.288 352.786 256.288 348.245C256.288 341.858 252.172 337.545 244.494 337.545H231.949V371ZM238.009 353.717V342.609H243.563C248.088 342.609 250.113 344.684 250.113 348.245C250.113 351.806 248.088 353.717 243.596 353.717H238.009ZM266.623 371L269.383 362.751H281.962L284.739 371H291.207L279.413 337.545H271.932L260.154 371H266.623ZM271.017 357.883L275.542 344.406H275.803L280.328 357.883H271.017ZM290.561 342.626H300.901V371H306.912V342.626H317.252V337.545H290.561V342.626ZM328.918 337.545H322.858V371H328.918V337.545ZM365.834 354.273C365.834 343.459 359.235 337.088 350.463 337.088C341.675 337.088 335.092 343.459 335.092 354.273C335.092 365.07 341.675 371.457 350.463 371.457C359.235 371.457 365.834 365.087 365.834 354.273ZM359.741 354.273C359.741 361.885 355.919 366.018 350.463 366.018C345.023 366.018 341.185 361.885 341.185 354.273C341.185 346.661 345.023 342.528 350.463 342.528C355.919 342.528 359.741 346.661 359.741 354.273ZM399.516 337.545H393.489V360.349H393.195L377.447 337.545H372.024V371H378.084V348.212H378.362L394.126 371H399.516V337.545Z" fill="black"/>
</svg>
